<svg xmlns="http://www.w3.org/2000/svg" viewBox="0 0 32 20" fill="none">
  <path
    d="M16 0c-1.2 3.2-3.6 5.6-7 6.4-2 .5-4.2.2-6.4-.8C1.8 7 .6 9 0 11.2c2.2-.2 4 .4 5.4 1.6 1.2 1.1 2 2.7 2.2 4.6.2 1.4 0 2.6-.4 3.6h.2c1.6-2.4 3.8-4 6.4-4.6 1.2-.3 2.4-.3 3.6-.1-.2-.6-.6-1.4-1.2-2.4-.3-.4-.4-.8-.2-1.2.2-.3.6-.5 1-.4.4.1.7.4.8.8.4 1.2.8 2.2 1.2 2.8.2.2.4.4.6.4h.8c.2 0 .4-.2.6-.4.4-.6.8-1.6 1.2-2.8.1-.4.4-.7.8-.8.4-.1.8.1 1 .4.2.4.1.8-.2 1.2-.6 1-1 1.8-1.2 2.4 1.2-.2 2.4-.2 3.6.1 2.6.6 4.8 2.2 6.4 4.6h.2c-.4-1-.6-2.2-.4-3.6.2-1.9 1-3.5 2.2-4.6 1.4-1.2 3.2-1.8 5.4-1.6-.6-2.2-1.8-4.2-2.6-5.6-2.2 1-4.4 1.3-6.4.8-3.4-.8-5.8-3.2-7-6.4h-1.8z"
    fill="#F0F0F2"
  />
</svg>
